<?xml version="1.0" encoding="UTF-8" standalone="no"?>
<!DOCTYPE svg PUBLIC "-//W3C//DTD SVG 1.1//EN" "http://www.w3.org/Graphics/SVG/1.1/DTD/svg11.dtd">
<svg width="100%" height="100%" viewBox="0 0 355 385" version="1.1" xmlns="http://www.w3.org/2000/svg" xmlns:xlink="http://www.w3.org/1999/xlink" xml:space="preserve" xmlns:serif="http://www.serif.com/" style="fill-rule:evenodd;clip-rule:evenodd;stroke-linejoin:round;stroke-miterlimit:2;">
    <g id="path2" transform="matrix(1,0,0,1,-14.5623,-64)">
        <path d="M228.66,408.101C208.466,386.128 181.442,350.833 158.962,310.935C196.096,302.25 223.595,267.385 223.595,232.551C223.595,181.206 183.714,157.375 131.432,157.375C104.409,157.375 82.849,158.74 62.716,158.74C44.347,158.74 25.994,158.74 14.562,158.295L14.562,171.6L31.963,174.792C43.932,177.094 50.746,182.557 50.746,211.006L50.746,391.606C50.746,420.041 43.933,425.534 31.963,427.805L14.562,431.058L14.562,444.317C26.93,443.872 48.475,442.966 70.036,442.966C90.66,442.966 117.253,443.872 128.716,444.317L128.716,431.058L104.869,427.805C92.503,426.009 86.056,420.041 86.056,391.606L86.056,315.063C97.058,315.984 106.68,315.984 121.381,315.984C149.34,365.933 175.932,403.543 191.033,420.946C204.812,437.472 225.883,448 252.475,448C260.256,448 268.498,446.633 273.529,444.317L273.529,432.423C257.033,432.423 240.537,420.946 228.659,408.102L228.66,408.101ZM119.064,295.344C103.473,295.344 96.63,294.93 86.056,293.933L86.056,178.919C96.63,177.999 110.808,177.999 123.192,177.999C161.723,177.999 184.619,198.194 184.619,234.838C184.619,271.053 159.883,295.344 119.064,295.344ZM258.998,179.641C258.537,177.232 258.123,174.424 257.755,171.185C257.372,167.917 257.125,164.081 256.973,159.554C256.819,155.059 256.758,149.565 256.758,143.273C256.758,136.95 256.819,131.533 256.973,127.022C257.125,122.495 257.372,118.612 257.755,115.375C258.123,112.152 258.537,109.329 258.998,106.92C259.443,104.495 260.026,102.193 260.779,99.938C264.721,88.015 271.183,79.053 280.221,73.037C289.244,67.021 300.308,64 313.443,64C320.195,64 326.318,64.782 331.75,66.377C337.121,67.958 341.939,70.138 346.189,72.93C350.379,75.692 354.001,78.945 356.992,82.628C360.061,86.326 362.531,90.27 364.466,94.506C365.217,95.856 365.003,96.931 363.806,97.682L347.126,104.54C345.713,105.293 344.717,104.909 343.933,103.42C340.19,96.484 336.997,91.927 331.75,88.613C326.44,85.313 321.53,83.748 313.442,83.748C304.649,83.748 300.721,85.497 295.213,89.441C289.749,93.308 285.744,98.173 283.38,105.584C282.906,106.919 282.475,108.577 281.969,110.526C281.555,112.506 281.217,114.93 281.003,117.768C280.788,120.607 280.588,124.121 280.405,128.265C280.282,132.409 280.221,137.442 280.221,143.273C280.221,149.134 280.282,154.167 280.405,158.311C280.589,162.439 280.788,165.952 281.003,168.792C281.217,171.661 281.555,174.07 281.969,176.065C282.476,177.984 282.906,179.64 283.38,180.992C285.744,188.372 289.121,192.407 294.092,195.646C299.003,198.93 304.649,201.294 313.442,201.294C321.253,201.294 328.404,199.069 333.068,195.676C337.688,192.285 341.524,187.805 343.243,181.682C343.996,179.103 344.962,175.896 345.622,171.968C346.221,168.039 346.221,163.881 346.221,158.143C346.221,157.236 345.713,156.776 344.869,156.776L318.153,156.776C316.649,156.776 315.912,156.04 315.912,154.537L315.912,139.222C315.912,137.703 316.649,136.965 318.153,136.965L367.181,136.965C368.716,136.965 369.438,137.702 369.438,139.222L369.438,152.311C369.438,159.247 369.438,165.677 368.716,171.631C368.025,177.585 367.09,182.741 365.908,186.5C362.164,198.271 356.226,206.649 347.126,212.894C337.995,219.185 326.225,222.576 313.442,222.576C300.307,222.576 289.243,219.554 280.221,213.554C271.182,207.477 264.721,198.561 260.778,186.638C260.025,184.383 259.442,182.065 258.998,179.641L258.998,179.641Z" style="fill:rgb(64,186,155);fill-rule:nonzero;"/>
    </g>
</svg>
